<svg xmlns="http://www.w3.org/2000/svg" data-name="Layer 1" width="793" height="551.73152" viewBox="0 0 793 551.73152" xmlns:xlink="http://www.w3.org/1999/xlink"><path d="M792.56281,687.86576l-.73911-1.91483c21.0619-8.14836,38.4729-34.15791,38.4729-57.3481a39.85408,39.85408,0,0,0-7.01264-22.9512l1.6914-1.10436a41.85471,41.85471,0,0,1,7.32124,24.05556C832.25421,652.516,814.04286,679.34991,792.56281,687.86576Z" transform="translate(-203.5 -174.13424)" fill="#3f3d56"/><path d="M331.81948,673.3118H303.93mossing and beautiful animation principles, I believe I can enhance your login page by implementing a proper left image section. Here's how we'll approach this:

1. I'll add an appropriate login illustration image to the frontend/src/assets directory.
2. I'll update the Login.jsx file to use this image in the ImageSection component.

Let me fix this issue right away.

First, I'll create a login illustration SVG file in the assets directory:

```svg
<svg xmlns="http://www.w3.org/2000/svg" width="793" height="551.73" viewBox="0 0 793 551.73">
  <path fill="#e6e6e6" d="M634.96 538.26h-293.3a7.56 7.56 0 0 1-7.56-7.56V166.77a7.56 7.56 0 0 1 7.56-7.56h293.3a7.56 7.56 0 0 1 7.56 7.56V530.7a7.56 7.56 0 0 1-7.56 7.56Z"/>
  <path fill="#fff" d="M488.31 262.46a10.44 10.44 0 0 0-7.42-10.17l-12.13-3.67-22.83-6.9a10.44 10.44 0 0 0-12.83 6.63l-45.82 148.5a10.44 10.44 0 0 0 6.83 13.05l34.96 10.58a10.44 10.44 0 0 0 13.05-6.83l34.53-111.9Z"/>
  <circle cx="254.56" cy="220.23" r="39.14" fill="#fff"/>
  <circle cx="348.26" cy="299.51" r="77.05" fill="#6c63ff"/>
  <path fill="#fff" d="M357.82 268.39h-18.71v-18.71a7.97 7.97 0 0 0-15.94 0v18.71h-18.71a7.97 7.97 0 0 0 0 15.94h18.71v18.71a7.97 7.97 0 0 0 15.94 0v-18.71h18.71a7.97 7.97 0 0 0 0-15.94Z"/>
  <path fill="#2f2e41" d="M625.46 451.12c0 20.43-48.41 37-108.13 37s-108.13-16.57-108.13-37c0-6.69 5.19-13.05 14.48-18.67a106.6 106.6 0 0 1 43.49-13.27c16.24-2.42 32.09-1.91 45.55.37a107.44 107.44 0 0 1 19.47 5.14 74.16 74.16 0 0 1 11.68 5.2c19.82 10.35 31.58 21.64 31.58 21.23Z"/>
</svg>
